<svg viewBox="0 0 100 100" xmlns="http://www.w3.org/2000/svg">
    <g stroke="#000">
        <path d="M1.58 18.16v22.555c0 1.9 2.597 3.2 2.597 5.1v48.53c0 2.55 7.79 2.55 7.79 0v-48.53c0-1.9 2.596-3.2 2.596-5.1V18.16c0-.601-1.011-1.594-1.623-1.594-.612 0-1.623.993-1.623 1.594v16.257c0 .85-1.623.85-1.623 0V18.16c0-.601-1.01-1.594-1.623-1.594-.612 0-1.622.993-1.622 1.594v16.257c0 .85-1.623.85-1.623 0V18.16c0-.601-1.011-1.594-1.623-1.594-.612 0-1.623.993-1.623 1.594zM26.368 13.16c-3.723 0-9.027-3.995-9.087-7.65-.025-1.533 1.036-2.55 2.596-2.55h76.595c2.597 0 2.597 7.65 0 7.65h-44.14c-1.368 0 .07 2.55-1.298 2.55z"/>
        <g transform="matrix(.0813 0 0 .07985 -45.571 31.8)" stroke-linecap="round" stroke-width="12.412">
            <circle cx="1267.3" cy="335.44" r="499.11"/>
            <circle cx="1267.3" cy="335.44" r="325.54"/>
        </g>
    </g>
</svg>
