<svg viewBox="0 0 100 100" xmlns="http://www.w3.org/2000/svg">
    <rect width="100" height="100" rx="20" ry="20" fill="#477819"/>
    <g fill="#fed7ca" stroke-width="5.492">
        <path d="M65.894 18.563c-1.03-4.011-4.27-6.552-8.728-7.034a10.525 10.525 0 0 0-1.131-.062c-3.875 0-6.632 2.263-8.208 5.355-1.646-3.227-4.457-5.32-8.555-5.32-.271 0-.549.009-.831.027-4.076.269-7.577 2.706-8.68 7.458-.787 3.388.215 6.807 2.375 10.229h31.389c2.251-3.662 3.237-7.269 2.368-10.653z"/>
        <path d="M36.34 29.216c-1.881.174-3.915.322-5.95.488-.974.08-1.894.16-2.742.245-.764.076-1.427.153-1.975.244-.428.071-.75.123-.879.244-.06.057.107.178.38.244.402.097.942.17 1.604.244.774.088 1.65.166 2.612.244 2.12.173 4.388.322 6.654.489 1.086.08 2.118.159 3.077.244.873.077 1.645.154 2.303.244.536.073.947.137 1.204.244.138.057.118.184-.048.244-.286.103-.715.17-1.261.244a56.21 56.21 0 0 1-2.25.244c-1.867.173-3.87.321-5.859.488a128.1 128.1 0 0 0-2.645.244 26.06 26.06 0 0 0-1.851.244c-.384.07-.68.121-.74.244-.039.078.2.177.517.244.447.095 1.029.168 1.73.244.811.087 1.72.165 2.714.244 2.17.17 4.473.32 6.76.487 1.09.08 2.125.159 3.083.244.87.077 1.638.154 2.288.243.529.073.932.137 1.18.244.13.056.101.183-.071.243-.292.103-.725.17-1.272.244-.655.088-1.407.165-2.24.243-1.847.173-3.82.32-5.769.487-.921.079-1.784.158-2.57.243-.698.076-1.292.15-1.767.243-.356.07-.638.13-.656.243-.015.099.254.175.595.244.471.093 1.074.167 1.795.242.829.087 1.754.165 2.76.243 2.194.17 4.515.32 6.814.486 1.097.08 2.136.158 3.1.243.875.076 1.648.153 2.305.242.535.073.946.137 1.204.243.14.057.124.183-.037.242-.278.103-.696.17-1.228.242-.638.088-1.373.165-2.189.243-1.812.171-3.754.318-5.675.484-.91.078-1.763.157-2.542.242-.692.075-1.284.15-1.759.242-.356.068-.638.125-.667.241-.022.093.237.175.568.242.458.093 1.049.167 1.758.241.816.086 1.73.164 2.727.242 2.18.17 4.497.318 6.806.482 1.108.08 2.162.158 3.145.242.899.076 1.7.153 2.388.24.57.073 1.017.14 1.32.241.178.06.218.185.099.241-.228.106-.602.169-1.089.24-.594.089-1.289.165-2.068.241.957-.075 1.836-.15 2.622-.233a19.961 19.961 0 0 0 1.709-.234c.33-.065.59-.131.592-.234 0-.1-.254-.168-.573-.235-.432-.09-.976-.161-1.62-.235a97.379 97.379 0 0 0-2.396-.236c-1.84-.163-3.73-.306-5.528-.473a67.637 67.637 0 0 1-2.246-.237c-.572-.073-1.038-.142-1.38-.237-.224-.063-.338-.186-.263-.238.161-.114.493-.17.94-.239.57-.089 1.26-.164 2.057-.239.893-.084 1.87-.162 2.917-.24 2.236-.165 4.552-.313 6.805-.48 1.06-.077 2.052-.155 2.963-.24a37.716 37.716 0 0 0 2.112-.24c.464-.071.81-.128.984-.242.08-.053-.028-.178-.256-.242-.348-.097-.827-.167-1.418-.241a70.788 70.788 0 0 0-2.33-.243c-1.868-.17-3.833-.317-5.745-.485a91.424 91.424 0 0 1-2.46-.243c-.648-.076-1.19-.149-1.606-.244-.294-.067-.508-.175-.462-.243.084-.124.39-.174.796-.244a28.74 28.74 0 0 1 1.977-.245c.88-.086 1.851-.165 2.896-.244 2.246-.17 4.58-.32 6.852-.49a153.33 153.33 0 0 0 2.976-.244 34.338 34.338 0 0 0 2.089-.246c.446-.071.777-.123.913-.245.063-.056-.1-.18-.368-.246-.393-.097-.918-.17-1.557-.245a84.074 84.074 0 0 0-2.467-.246c-1.946-.171-3.968-.32-5.91-.492a80.21 80.21 0 0 1-2.447-.246c-.628-.076-1.142-.149-1.523-.247-.255-.065-.396-.192-.326-.246.156-.12.498-.175.96-.247.589-.092 1.304-.169 2.129-.246.922-.087 1.928-.166 3-.247 2.273-.17 4.593-.32 6.802-.493 1.019-.08 1.957-.159 2.8-.247.734-.076 1.348-.151 1.827-.246.346-.07.62-.15.6-.247-.026-.119-.32-.176-.692-.246a24.309 24.309 0 0 0-1.842-.247 123.23 123.23 0 0 0-2.673-.247c-2.026-.169-4.074-.318-5.99-.493a60.49 60.49 0 0 1-2.32-.246c-.566-.075-1.014-.143-1.318-.246-.18-.061-.214-.19-.084-.247.25-.108.656-.172 1.189-.246a50.17 50.17 0 0 1 2.3-.246c.96-.085 1.992-.165 3.077-.245 2.262-.168 4.518-.318 6.615-.492H36.34zM63.503 88.546H32.197a5.429 5.429 0 0 1-3.819-1.57l-2.531-2.507a.768.768 0 0 1 .54-1.313h42.927c.686 0 1.027.831.54 1.313l-2.532 2.507a5.43 5.43 0 0 1-3.819 1.57zm19.713-28.742c0 5.412-4.387 9.8-9.8 9.8a9.755 9.755 0 0 1-5.249-1.523c-1.016 7.883-7.8 14.027-15.949 14.027h-8.737c-8.844 0-16.08-7.237-16.08-16.081V48.96a2.567 2.567 0 0 1 2.559-2.56c11.926.76 23.853.76 35.78 0a2.567 2.567 0 0 1 2.559 2.56v2.485a9.753 9.753 0 0 1 5.117-1.441c5.412 0 9.8 4.387 9.8 9.8zm-3.117 0a6.683 6.683 0 0 0-11.8-4.298v8.596a6.683 6.683 0 0 0 11.8-4.298z"/>
    </g>
</svg>
