<svg version="1.1" viewBox="0 0 100 100" xmlns="http://www.w3.org/2000/svg">
	<g transform="translate(0,-197)">
		<g transform="matrix(.059827 0 0 .059827 10.813 197.29)" stroke-width="4.4225">
			<g stroke-width="4.4225">
				<path d="m901.9 178.3c-21.386-83.272-88.64-136.01-181.16-146.01-8.043-.869-15.864-1.29-23.49-1.29-80.428 0-137.65 46.967-170.37 111.16-34.179-66.996-92.522-110.45-177.59-110.45-5.63 0-11.382.191-17.247.577-84.607 5.577-157.29 56.17-180.19 154.8-16.333 70.345 4.469 141.31 49.311 212.34h651.56c46.736-76.013 67.212-150.89 49.173-221.13z" enable-background="new    "/>
				<path d="m288.44 399.43c-39.054 3.612-81.271 6.678-123.52 10.136-20.212 1.654-39.306 3.295-56.917 5.068-15.848 1.596-29.62 3.178-40.995 5.068-8.894 1.479-15.554 2.563-18.239 5.068-1.256 1.178 2.207 3.704 7.866 5.068 8.352 2.011 19.57 3.513 33.318 5.068 16.059 1.815 34.238 3.443 54.218 5.068 43.995 3.578 91.077 6.68 138.12 10.136 22.545 1.656 43.956 3.303 63.873 5.068 18.116 1.605 34.146 3.211 47.794 5.067 11.125 1.514 19.662 2.854 25.001 5.067 2.861 1.189 2.451 3.824-.994 5.067-5.946 2.14-14.854 3.536-26.186 5.066-13.603 1.836-29.28 3.448-46.697 5.066-38.747 3.597-80.334 6.659-121.62 10.13-19.611 1.649-38.031 3.286-54.898 5.064-15.044 1.587-27.964 3.153-38.431 5.064-7.967 1.455-14.11 2.515-15.374 5.063-.795 1.62 4.163 3.664 10.743 5.062 9.28 1.971 21.356 3.5 35.923 5.062 16.827 1.804 35.706 3.433 56.317 5.061 45.044 3.556 92.857 6.66 140.32 10.119 22.656 1.651 44.113 3.295 64.017 5.058 18.057 1.6 33.984 3.201 47.494 5.057 10.967 1.507 19.342 2.83 24.486 5.056 2.708 1.174 2.101 3.803-1.473 5.055-6.065 2.12-15.041 3.524-26.406 5.054-13.589 1.828-29.198 3.437-46.495 5.053-38.337 3.579-79.295 6.631-119.75 10.102-19.131 1.641-37.035 3.271-53.355 5.049-14.475 1.577-26.813 3.129-36.682 5.048-7.376 1.436-13.233 2.676-13.606 5.046-.311 2.044 5.275 3.633 12.356 5.045 9.767 1.945 22.282 3.482 37.254 5.043 17.198 1.792 36.407 3.418 57.308 5.042 45.529 3.535 93.697 6.633 141.43 10.079 22.771 1.644 44.334 3.282 64.341 5.037 18.166 1.594 34.21 3.191 47.849 5.035 11.114 1.504 19.637 2.842 24.989 5.034 2.891 1.187 2.571 3.8-.759 5.032-5.766 2.128-14.446 3.51-25.485 5.03-13.246 1.822-28.504 3.422-45.444 5.028-37.625 3.566-77.921 6.602-117.81 10.05-18.895 1.634-36.602 3.256-52.769 5.022-14.366 1.57-26.642 3.116-36.499 5.02-7.408 1.432-13.255 2.606-13.845 5.018-.458 1.915 4.915 3.618 11.773 5.016 9.523 1.94 21.784 3.464 36.498 5.014 16.949 1.784 35.923 3.4 56.616 5.012 45.24 3.523 93.337 6.605 141.27 10.016 23 1.637 44.877 3.267 65.286 5.005 18.656 1.589 35.273 3.183 49.571 5.002 11.845 1.508 21.119 2.904 27.386 5 3.717 1.245 4.538 3.841 2.066 4.997-4.721 2.203-12.497 3.501-22.598 4.995-12.34 1.824-26.755 3.405-42.924 4.992 19.867-1.554 38.1-3.117 54.421-4.839 14.209-1.5 26.12-2.985 35.469-4.851 6.846-1.367 12.246-2.729 12.283-4.862.026-2.095-5.262-3.493-11.89-4.873-8.955-1.863-20.262-3.36-33.611-4.883-15.124-1.726-31.811-3.305-49.743-4.894-38.207-3.384-77.418-6.366-114.75-9.818-17.097-1.582-32.744-3.159-46.619-4.924-11.875-1.511-21.556-2.953-28.643-4.933-4.669-1.306-7.024-3.85-5.475-4.942 3.349-2.354 10.244-3.501 19.525-4.951 11.82-1.846 26.134-3.403 42.686-4.96 18.538-1.744 38.83-3.356 60.561-4.969 46.414-3.444 94.495-6.517 141.26-9.962 21.987-1.62 42.598-3.24 61.5-4.993 16.932-1.57 31.638-3.141 43.842-5.001 9.632-1.469 16.806-2.638 20.414-5.008 1.668-1.099-.578-3.694-5.302-5.015-7.228-2.019-17.179-3.482-29.446-5.022-14.349-1.8-30.58-3.41-48.359-5.029-38.772-3.528-79.56-6.576-119.25-10.076-18.495-1.631-35.633-3.255-51.064-5.047-13.453-1.564-24.686-3.083-33.334-5.053-6.106-1.392-10.554-3.629-9.597-5.058 1.736-2.574 8.093-3.608 16.53-5.064 11.114-1.915 24.885-3.487 41.033-5.069 18.274-1.79 38.425-3.431 60.12-5.073 46.613-3.528 95.078-6.648 142.23-10.16 22.145-1.65 42.854-3.298 61.778-5.086 16.873-1.595 31.421-3.184 43.353-5.09 9.262-1.481 16.135-2.569 18.959-5.094 1.298-1.167-2.077-3.722-7.639-5.097-8.165-2.016-19.065-3.529-32.314-5.1-15.336-1.819-32.529-3.457-51.222-5.103-40.394-3.557-82.363-6.644-122.67-10.215-18.572-1.646-35.621-3.284-50.793-5.111-13.039-1.57-23.715-3.075-31.628-5.113-5.288-1.364-8.22-3.986-6.762-5.114 3.233-2.492 10.341-3.622 19.912-5.116 12.243-1.909 27.076-3.51 44.203-5.117 19.149-1.796 40.032-3.455 62.291-5.118 47.183-3.526 95.322-6.661 141.18-10.239 21.154-1.651 40.639-3.302 58.117-5.12 15.239-1.586 27.984-3.144 37.927-5.12 7.195-1.431 12.866-3.108 12.445-5.12-.529-2.467-6.623-3.662-14.339-5.12-10.302-1.945-23.16-3.519-38.234-5.119-16.986-1.802-35.611-3.454-55.503-5.118-42.043-3.516-84.563-6.608-124.32-10.233-17.924-1.635-34.092-3.264-48.163-5.114-11.765-1.548-21.057-2.971-27.362-5.113-3.727-1.268-4.436-3.931-1.741-5.111 5.169-2.257 13.617-3.586 24.674-5.108 13.612-1.873 29.63-3.49 47.747-5.106 19.927-1.777 41.341-3.435 63.874-5.103 46.955-3.475 93.779-6.588 137.3-10.197-217.19-.004-434.38-.004-651.56-.004z" enable-background="new    "/>
				<path d="m852.28 1631h-649.84c-29.691 0-58.182-11.718-79.282-32.606l-52.549-52.024c-10.116-10.015-3.024-27.259 11.211-27.259h891.08c14.235 0 21.327 17.244 11.211 27.259l-52.549 52.024c-21.101 20.888-49.592 32.606-79.283 32.606zm409.2-596.63c0 112.35-91.076 203.42-203.42 203.42-40.085 0-77.456-11.6-108.96-31.618-21.101 163.65-161.91 291.17-331.07 291.17h-181.36c-183.59 0-333.8-150.21-333.8-333.8v-354.28c0-29.216 23.904-53.119 53.119-53.119 247.57 15.77 495.15 15.77 742.72 0 29.216 0 53.119 23.904 53.119 53.119v51.59c30.918-18.968 67.29-29.912 106.22-29.912 112.35 0 203.42 91.076 203.42 203.42zm-64.704 0c0-76.613-62.107-138.72-138.72-138.72-42.638 0-80.775 19.242-106.22 49.51v178.42c25.447 30.267 63.584 49.51 106.22 49.51 76.613-.001 138.72-62.108 138.72-138.72z"/>
			</g>
		</g>
	</g>
</svg>
