<svg viewBox="0 0 100 100" xmlns="http://www.w3.org/2000/svg">
    <g stroke-width="4.423">
        <path d="M64.771 10.957c-1.28-4.982-5.303-8.137-10.838-8.735a13.07 13.07 0 0 0-1.406-.077c-4.811 0-8.235 2.81-10.192 6.65-2.045-4.008-5.536-6.608-10.625-6.608-.337 0-.681.012-1.032.035-5.062.333-9.41 3.36-10.78 9.26-.977 4.21.267 8.455 2.95 12.705h38.98c2.797-4.548 4.022-9.028 2.943-13.23z"/>
        <path d="M28.07 24.187c-2.337.216-4.863.4-7.39.606-1.21.1-2.352.197-3.406.303-.948.096-1.772.19-2.452.304-.532.088-.93.153-1.091.303-.075.07.132.221.47.303.5.12 1.171.21 1.994.303.96.109 2.048.206 3.243.303 2.632.214 5.45.4 8.264.607 1.348.099 2.63.197 3.821.303 1.084.096 2.043.192 2.86.303.665.09 1.176.17 1.495.303.171.071.147.229-.06.303-.355.128-.888.212-1.566.303-.814.11-1.752.207-2.794.304-2.318.215-4.806.398-7.276.606-1.173.098-2.275.196-3.284.303-.9.094-1.673.188-2.3.303-.476.087-.844.15-.92.302-.047.097.25.22.643.303.556.118 1.278.21 2.15.303 1.006.108 2.136.205 3.369.303 2.695.213 5.555.398 8.395.605 1.355.099 2.639.197 3.83.303 1.08.096 2.033.191 2.841.302.656.09 1.157.17 1.465.303.162.07.126.227-.088.302-.363.127-.9.211-1.58.303-.813.11-1.747.205-2.782.302-2.293.214-4.743.397-7.164.604-1.144.099-2.215.196-3.192.302-.866.095-1.604.188-2.194.302-.442.086-.792.16-.814.302-.019.123.315.218.739.302.584.117 1.333.208 2.229.302 1.028.107 2.178.204 3.428.302 2.724.211 5.606.396 8.461.603 1.363.098 2.653.196 3.85.3 1.087.096 2.046.192 2.862.302.665.09 1.175.17 1.495.301.173.071.154.228-.045.301-.345.128-.864.21-1.525.301-.792.11-1.705.205-2.718.301-2.251.213-4.662.395-7.049.601-1.13.098-2.19.195-3.157.3-.86.095-1.594.187-2.183.301-.443.086-.793.156-.829.3-.027.115.294.217.705.3.57.116 1.303.208 2.183.3 1.014.107 2.15.204 3.388.3 2.706.211 5.584.395 8.451.6 1.376.097 2.685.195 3.906.299 1.116.095 2.11.19 2.966.3.708.09 1.263.173 1.638.298.223.075.272.23.124.3-.283.131-.748.209-1.352.298-.738.11-1.6.204-2.568.299 1.188-.093 2.28-.187 3.256-.29.85-.09 1.562-.178 2.122-.29.41-.082.732-.163.735-.29.001-.126-.315-.21-.712-.292-.536-.112-1.212-.201-2.01-.293-.905-.103-1.904-.197-2.977-.292-2.285-.203-4.631-.381-6.865-.588a83.998 83.998 0 0 1-2.789-.294c-.71-.09-1.29-.177-1.713-.295-.28-.079-.42-.23-.328-.296.2-.14.613-.21 1.168-.296.707-.11 1.564-.204 2.554-.297 1.109-.104 2.323-.2 3.623-.297 2.777-.206 5.653-.39 8.451-.596 1.316-.097 2.549-.194 3.68-.299a46.839 46.839 0 0 0 2.623-.3c.576-.087 1.005-.157 1.22-.299.1-.066-.034-.22-.316-.3-.433-.12-1.028-.208-1.762-.3a87.91 87.91 0 0 0-2.893-.301c-2.32-.211-4.76-.394-7.135-.603a113.538 113.538 0 0 1-3.055-.302c-.804-.094-1.476-.184-1.994-.302-.365-.084-.631-.217-.574-.303.104-.154.484-.216.989-.303.665-.114 1.489-.208 2.455-.303 1.093-.107 2.299-.205 3.597-.304 2.788-.21 5.688-.397 8.509-.607 1.325-.1 2.564-.198 3.696-.305 1.01-.095 1.88-.19 2.593-.304.555-.089.966-.154 1.135-.305.077-.07-.125-.223-.457-.305-.489-.12-1.14-.211-1.934-.305a104.41 104.41 0 0 0-3.064-.305c-2.417-.213-4.928-.398-7.339-.611a99.61 99.61 0 0 1-3.039-.306c-.78-.094-1.419-.184-1.892-.306-.316-.082-.492-.239-.405-.306.194-.15.62-.217 1.192-.306.732-.114 1.62-.21 2.644-.306a200.91 200.91 0 0 1 3.727-.307c2.823-.21 5.703-.398 8.446-.612 1.266-.099 2.432-.198 3.477-.306.912-.095 1.675-.189 2.27-.307.43-.085.77-.186.744-.306-.032-.148-.396-.22-.858-.306-.616-.117-1.386-.21-2.287-.307-1.017-.107-2.13-.206-3.32-.306-2.516-.21-5.06-.395-7.439-.612a75.122 75.122 0 0 1-2.881-.306c-.704-.093-1.26-.178-1.637-.306-.223-.076-.265-.235-.104-.306.309-.135.814-.214 1.476-.305a62.305 62.305 0 0 1 2.857-.306 258.73 258.73 0 0 1 3.82-.305c2.81-.208 5.611-.394 8.215-.61h-38.98zM61.802 97.868H22.924a6.742 6.742 0 0 1-4.743-1.95l-3.144-3.113c-.605-.6-.18-1.631.671-1.631h53.31c.852 0 1.277 1.032.671 1.63l-3.143 3.113a6.742 6.742 0 0 1-4.744 1.95zm24.482-35.695c0 6.722-5.45 12.17-12.17 12.17-2.399 0-4.634-.694-6.52-1.891-1.262 9.79-9.686 17.42-19.806 17.42h-10.85c-10.984 0-19.97-8.987-19.97-19.97V48.705a3.187 3.187 0 0 1 3.177-3.178c14.812.943 29.624.943 44.435 0a3.187 3.187 0 0 1 3.178 3.178v3.086a12.113 12.113 0 0 1 6.355-1.79c6.721 0 12.17 5.45 12.17 12.17zm-3.871 0a8.3 8.3 0 0 0-14.655-5.337V67.51a8.3 8.3 0 0 0 14.654-5.337z"/>
    </g>
</svg>
