<?xml version="1.0" standalone="no"?>
<!DOCTYPE svg PUBLIC "-//W3C//DTD SVG 20010904//EN"
 "http://www.w3.org/TR/2001/REC-SVG-20010904/DTD/svg10.dtd">
<svg version="1.0" xmlns="http://www.w3.org/2000/svg"
 width="700.000000pt" height="700.000000pt" viewBox="0 0 700.000000 700.000000"
 preserveAspectRatio="xMidYMid meet">
<metadata>
Created by potrace 1.11, written by Peter Selinger 2001-2013
</metadata>
<g transform="translate(0.000000,700.000000) scale(0.100000,-0.100000)"
fill="#000000" stroke="none">
<path d="M2138 6845 c-2 -2 -29 -6 -61 -9 -32 -4 -99 -20 -150 -36 -249 -79
-424 -260 -510 -525 -34 -106 -38 -130 -42 -261 -6 -175 34 -340 125 -525 32
-64 86 -164 97 -178 1 -2 50 -4 108 -4 58 0 105 -3 105 -7 0 -4 -46 -11 -102
-14 -57 -4 -116 -9 -133 -11 -16 -2 -64 -6 -105 -10 -103 -8 -199 -16 -235
-20 -16 -2 -57 -6 -90 -10 -33 -3 -69 -8 -80 -10 -68 -11 -96 -18 -100 -26 -7
-10 50 -26 120 -34 28 -3 61 -7 75 -10 14 -2 63 -7 110 -10 47 -3 101 -8 120
-10 19 -2 80 -6 135 -10 55 -3 118 -8 140 -10 22 -2 78 -7 125 -10 157 -11
330 -24 390 -30 19 -2 64 -6 100 -10 125 -12 155 -16 198 -27 23 -6 42 -15 42
-19 0 -5 -2 -9 -4 -9 -2 0 -25 -4 -52 -9 -54 -10 -97 -16 -189 -26 -114 -12
-130 -14 -220 -20 -49 -3 -101 -8 -115 -10 -14 -2 -68 -6 -120 -10 -52 -4
-111 -8 -130 -10 -19 -2 -70 -6 -113 -10 -44 -4 -86 -8 -95 -10 -10 -1 -46 -6
-82 -10 -107 -12 -160 -24 -160 -35 0 -14 99 -32 245 -45 33 -3 85 -8 115 -11
30 -3 79 -7 109 -9 52 -4 158 -12 271 -20 30 -2 96 -7 145 -10 50 -4 106 -8
125 -10 19 -2 80 -6 135 -10 55 -3 111 -8 125 -10 14 -2 59 -7 100 -11 41 -3
82 -7 90 -9 8 -1 39 -6 67 -10 48 -6 72 -19 61 -31 -6 -5 -93 -21 -163 -29
-27 -3 -66 -7 -85 -10 -19 -2 -66 -7 -105 -10 -38 -3 -90 -8 -115 -10 -25 -2
-76 -7 -115 -10 -99 -7 -192 -15 -245 -20 -25 -3 -72 -7 -105 -10 -81 -8 -155
-16 -174 -20 -9 -1 -39 -6 -66 -9 -109 -15 -95 -35 35 -52 25 -3 56 -7 70 -10
14 -2 54 -6 90 -9 36 -3 85 -8 110 -10 25 -3 86 -7 135 -11 50 -3 110 -7 135
-9 25 -2 90 -6 145 -10 55 -3 118 -8 140 -10 22 -2 81 -7 130 -10 50 -3 110
-8 135 -10 25 -3 77 -7 115 -10 39 -3 84 -7 100 -10 17 -2 56 -7 88 -10 168
-20 140 -51 -63 -70 -36 -3 -76 -8 -90 -10 -14 -2 -56 -7 -95 -10 -94 -7 -169
-14 -230 -19 -27 -3 -86 -8 -130 -11 -44 -4 -98 -9 -120 -11 -22 -2 -67 -6
-100 -9 -147 -14 -267 -33 -279 -45 -13 -13 28 -26 107 -34 37 -4 77 -9 88
-11 11 -2 55 -7 97 -10 42 -3 93 -8 112 -10 19 -2 80 -7 135 -10 55 -3 120 -8
145 -10 25 -3 83 -7 130 -10 47 -3 114 -7 150 -10 36 -3 94 -7 130 -10 123 -9
205 -16 240 -20 19 -2 67 -7 105 -10 144 -13 239 -43 168 -53 -13 -2 -23 -8
-23 -13 0 -6 3 -8 8 -6 4 3 30 8 57 11 106 13 125 18 125 32 0 8 -1 14 -3 14
-2 0 -48 7 -103 14 -54 8 -130 18 -169 21 -38 4 -81 8 -95 10 -14 2 -63 7
-110 10 -47 4 -101 8 -120 10 -19 2 -73 7 -120 10 -47 4 -96 8 -110 10 -14 2
-59 7 -100 10 -83 7 -94 8 -197 25 -116 19 -103 40 32 55 39 4 77 8 86 10 8 2
51 6 95 9 43 4 99 8 124 11 55 5 156 13 270 20 47 3 110 7 140 10 30 2 98 7
150 10 52 4 113 8 135 10 22 2 76 6 120 10 162 12 382 39 392 48 18 19 -52 37
-207 52 -30 3 -66 8 -80 10 -14 2 -61 7 -105 10 -44 3 -102 8 -130 10 -65 6
-159 14 -237 20 -58 5 -84 7 -208 20 -169 17 -250 31 -263 44 -12 12 45 27
133 36 36 4 73 9 82 10 9 2 57 7 105 10 48 4 104 8 123 10 67 7 218 18 400 30
41 3 107 7 145 10 83 7 142 11 250 20 44 3 96 8 115 10 19 2 60 7 90 10 30 3
80 11 110 17 49 9 52 11 35 24 -10 8 -26 14 -34 15 -9 0 -25 2 -36 4 -23 5
-108 16 -145 20 -33 3 -175 16 -225 20 -22 2 -69 6 -105 9 -36 4 -94 8 -130
11 -36 3 -87 7 -115 10 -27 3 -75 7 -105 10 -137 12 -177 16 -200 20 -14 2
-45 7 -69 10 -23 4 -55 11 -70 16 -22 9 -24 12 -9 20 29 16 282 44 578 64 36
3 90 7 120 10 55 4 156 12 280 20 101 7 222 16 260 20 19 2 64 7 100 10 36 4
74 9 85 11 11 2 43 7 70 10 49 6 74 18 63 30 -11 10 -193 35 -368 49 -36 3
-83 8 -105 10 -22 3 -76 7 -120 10 -44 3 -98 7 -120 10 -22 2 -80 7 -130 10
-49 3 -101 8 -115 10 -14 2 -54 6 -90 10 -180 17 -271 38 -239 55 19 11 98 23
234 36 38 3 84 8 100 9 17 2 73 7 125 10 52 4 109 9 125 10 17 2 75 6 130 10
55 4 118 9 140 10 22 2 64 4 93 6 95 4 63 16 -46 17 -59 0 -110 1 -115 1 -4 1
6 25 23 54 84 143 157 334 184 477 17 93 14 293 -6 375 -74 296 -280 506 -583
593 -187 54 -396 50 -560 -11 -46 -17 -159 -81 -185 -106 -118 -109 -170 -172
-236 -287 -10 -16 -14 -13 -39 31 -121 208 -304 344 -530 392 -59 12 -259 26
-267 18z m-248 -1539 c0 -8 -61 -12 -66 -4 -3 4 11 8 30 8 20 0 36 -2 36 -4z"/>
<path d="M4570 5300 c0 -5 7 -7 15 -4 8 4 15 8 15 10 0 2 -7 4 -15 4 -8 0 -15
-4 -15 -10z"/>
<path d="M3518 3973 c6 -2 18 -2 25 0 6 3 1 5 -13 5 -14 0 -19 -2 -12 -5z"/>
<path d="M1371 3809 c-49 -9 -113 -49 -140 -88 -42 -60 -43 -68 -42 -894 0
-435 3 -812 5 -837 7 -82 25 -190 32 -202 3 -5 8 -23 11 -40 3 -17 18 -66 33
-109 124 -336 365 -611 677 -772 79 -41 201 -90 251 -102 9 -3 35 -9 57 -15
22 -6 58 -13 80 -16 22 -3 58 -9 80 -14 46 -11 1082 -7 1135 4 155 31 228 52
337 97 157 65 343 193 465 321 51 53 168 202 168 214 0 4 6 15 14 23 27 31
105 197 135 286 16 50 37 129 47 177 l16 87 52 -29 c186 -104 440 -131 646
-68 144 44 255 111 360 217 159 161 241 352 243 571 2 139 -6 199 -39 299 -91
272 -306 472 -592 553 -62 18 -103 22 -212 21 -154 -1 -238 -18 -366 -77 -42
-20 -78 -36 -79 -36 -1 0 -2 58 -2 130 -1 146 -16 196 -76 246 -63 53 -120 63
-292 50 -546 -42 -1717 -52 -2430 -21 -224 10 -518 26 -525 29 -3 2 -25 -1
-49 -5z m3989 -608 c358 -114 518 -534 325 -851 -153 -250 -463 -349 -730
-233 -55 23 -144 84 -180 123 l-30 31 -1 375 -1 375 41 41 c79 79 188 136 301
157 70 13 206 5 275 -18z"/>
<path d="M1058 600 c-14 -11 -21 -28 -21 -50 0 -29 15 -48 132 -162 138 -134
201 -181 286 -214 48 -18 101 -19 1491 -21 1288 -3 1446 -1 1495 13 112 32
157 64 311 214 159 155 168 171 125 214 l-24 24 -1887 0 c-1768 -1 -1888 -2
-1908 -18z"/>
</g>
</svg>
